<svg width="20" height="20" viewBox="0 0 20 20" fill="none" xmlns="http://www.w3.org/2000/svg">
<g clip-path="url(#clip0_3286_60403)">
<path d="M7.65314 11.9393C7.65314 11.1456 7.65314 10.3518 7.65315 9.55803C7.65316 8.19782 7.65043 6.83759 7.65406 5.47739C7.65712 4.32996 8.48418 3.34505 9.58905 3.16291C10.7434 2.9726 11.8391 3.61073 12.2073 4.7121C12.2923 4.96628 12.3324 5.24633 12.3355 5.51514C12.349 6.69297 12.3437 7.87106 12.3382 9.04902C12.3375 9.19091 12.3758 9.24604 12.5197 9.28137C13.9458 9.63137 15.3702 9.98843 16.7936 10.349C17.8743 10.6227 18.5877 11.5258 18.5905 12.6368C18.5959 14.817 18.5932 16.9973 18.5914 19.1775C18.591 19.6694 18.2617 19.9982 17.7697 19.9985C14.9771 20 12.1844 19.9987 9.39176 20C9.15086 20.0001 8.94839 19.92 8.77811 19.7497C7.06176 18.0325 5.34046 16.3203 3.62999 14.5974C2.93628 13.8986 2.77618 12.8703 3.18836 11.9778C3.5917 11.1044 4.49051 10.5669 5.46241 10.6326C6.04125 10.6717 6.54521 10.8947 6.95922 11.3063C7.17894 11.5247 7.39386 11.748 7.61095 11.969C7.62501 11.9591 7.63908 11.9492 7.65314 11.9393ZM17.0295 18.4369C17.0295 18.3441 17.0295 18.2795 17.0295 18.215C17.0295 16.399 17.0296 14.5829 17.0295 12.7669C17.0294 12.2196 16.8359 11.9678 16.3086 11.8357C14.6947 11.4315 13.0804 11.0287 11.4662 10.6253C10.991 10.5066 10.7793 10.2374 10.7789 9.74636C10.778 8.82857 10.7787 7.91079 10.7786 6.99301C10.7785 6.47879 10.7842 5.96448 10.7759 5.45039C10.7693 5.05029 10.4622 4.72833 10.0723 4.69091C9.6744 4.65272 9.31097 4.92176 9.23147 5.32056C9.21389 5.40878 9.21647 5.5018 9.21645 5.59262C9.21573 8.33295 9.21617 11.0733 9.2155 13.8136C9.2154 14.2007 9.04374 14.4861 8.72583 14.6044C8.38579 14.7309 8.08989 14.6483 7.8357 14.3902C7.47482 14.0239 7.10928 13.6621 6.7455 13.2986C6.45079 13.0041 6.15941 12.7061 5.85963 12.4169C5.63584 12.201 5.36633 12.1306 5.06708 12.2288C4.77657 12.3241 4.59895 12.5318 4.54186 12.8295C4.48247 13.1392 4.6132 13.3815 4.82972 13.5973C6.40179 15.1645 7.97139 16.7341 9.53827 18.3065C9.63345 18.402 9.72697 18.4399 9.8613 18.4397C12.1791 18.4358 14.4968 18.4369 16.8146 18.4369C16.8784 18.4369 16.9423 18.4369 17.0295 18.4369Z" fill="#A1BBFF"/>
<path d="M10.003 0.000865539C11.5393 0.000861486 13.0755 -0.000299033 14.6117 0.00115145C16.5893 0.00301865 18.1623 1.30333 18.5346 3.24132C18.9447 5.3763 17.349 7.53834 15.1861 7.77656C15.0311 7.79363 14.8751 7.80939 14.7194 7.81057C14.2595 7.81404 13.9103 7.48125 13.9048 7.04277C13.8993 6.60243 14.2371 6.26763 14.6966 6.24961C15.6677 6.21153 16.3871 5.76376 16.8071 4.88748C17.5317 3.37572 16.4139 1.57477 14.737 1.56773C11.58 1.55448 8.42287 1.55844 5.26581 1.56645C4.00229 1.56965 2.96786 2.63313 2.96523 3.89894C2.9626 5.16771 3.98378 6.21795 5.25058 6.24932C5.75814 6.26189 6.10176 6.59148 6.0896 7.05409C6.07774 7.50534 5.72139 7.8173 5.22446 7.81146C2.95283 7.78478 1.14405 5.71095 1.43087 3.46196C1.68825 1.44371 3.31735 0.00519848 5.35527 0.00143696C6.90452 -0.00142257 8.45377 0.000869593 10.003 0.000865539Z" fill="#A1BBFF"/>
</g>
<defs>
<clipPath id="clip0_3286_60403">
<rect width="20" height="20" fill="white"/>
</clipPath>
</defs>
</svg>
