<svg width="16" height="16" viewBox="0 0 16 16" fill="none" xmlns="http://www.w3.org/2000/svg">
<g clip-path="url(#clip0_4794_1247)">
<path d="M10.0758 15.5831C9.24627 15.5661 8.53956 15.2676 7.95392 14.6805C7.03401 13.7582 6.11243 12.8376 5.19159 11.9163C3.90101 10.6251 2.60821 9.336 1.32056 8.04183C0.191338 6.90689 0.104091 5.15227 1.15167 3.98488C1.73416 3.33578 2.37362 2.73739 2.99565 2.12452C3.21286 1.91052 3.55966 1.92578 3.78775 2.13862C3.93917 2.27993 4.08261 2.42982 4.22912 2.57637C4.90241 3.24981 5.57564 3.92332 6.24866 4.59703C6.56763 4.91634 6.56802 5.24322 6.24996 5.56211C6.00256 5.81015 5.75365 6.05668 5.50726 6.30571C5.22988 6.58604 5.23009 6.92738 5.50955 7.2073C6.60417 8.30374 7.69943 9.39956 8.79544 10.4946C9.0727 10.7716 9.41523 10.7691 9.69704 10.4899C9.95643 10.2329 10.2124 9.97255 10.472 9.7158C10.7468 9.44404 11.0889 9.44165 11.362 9.71401C12.1831 10.5328 13.0028 11.3528 13.8209 12.1746C14.094 12.4488 14.0918 12.7916 13.8188 13.0659C13.2689 13.6185 12.7195 14.1716 12.1651 14.7197C11.5868 15.2915 10.885 15.5705 10.0758 15.5831ZM3.36687 3.41648C2.96607 3.81878 2.56541 4.22028 2.16549 4.62251C1.41888 5.37341 1.4183 6.46382 2.16572 7.2119C4.36952 9.41764 6.57409 11.6226 8.77822 13.828C9.53339 14.5836 10.619 14.5876 11.3773 13.8352C11.7556 13.4599 12.131 13.0818 12.5074 12.7046C12.5341 12.6778 12.5576 12.6476 12.5766 12.6258C12.0257 12.057 11.482 11.4957 10.9245 10.9202C10.7839 11.0675 10.6741 11.1876 10.5591 11.3024C9.78009 12.0793 8.70491 12.0796 7.92854 11.3033C6.85399 10.2289 5.77982 9.15412 4.70634 8.07865C4.62982 8.00199 4.55428 7.92298 4.48833 7.83732C3.93695 7.12114 4.00731 6.15128 4.65931 5.47953C4.78837 5.34656 4.92508 5.22102 5.05129 5.0988C4.48096 4.52918 3.93031 3.97922 3.36687 3.41648Z" fill="#6D6D6D"/>
<path d="M9.65817 6.28737C9.56358 6.26134 9.47361 6.23916 9.38521 6.21188C8.06843 5.80552 7.2007 4.54407 7.29509 3.1745C7.38933 1.8073 8.42492 0.67238 9.78273 0.454899C9.94742 0.428521 10.1164 0.4199 10.2835 0.419099C11.0478 0.415433 11.8122 0.416311 12.5765 0.417735C14.0671 0.420511 15.2629 1.41904 15.5371 2.88818C15.8384 4.50198 14.6301 6.13057 12.9992 6.31785C12.8891 6.33049 12.771 6.38041 12.6813 6.44652C12.0028 6.9467 11.3297 7.45429 10.6566 7.96178C10.446 8.12052 10.2217 8.17531 9.98068 8.05001C9.74743 7.92877 9.65387 7.72348 9.65696 7.46349C9.6616 7.07409 9.65817 6.68461 9.65817 6.28737ZM10.8421 6.33522C10.9147 6.28326 10.9625 6.25031 11.009 6.21547C11.4112 5.91378 11.8073 5.60329 12.219 5.31503C12.3407 5.22979 12.5044 5.168 12.6517 5.16188C13.6338 5.12105 14.4028 4.33244 14.3938 3.35486C14.385 2.39221 13.5927 1.60767 12.6182 1.60295C11.8342 1.59916 11.0502 1.60015 10.2662 1.60265C9.28545 1.60577 8.4866 2.38127 8.47451 3.33789C8.46192 4.33466 9.22806 5.12871 10.2286 5.15583C10.5959 5.16579 10.8374 5.40819 10.8418 5.77366C10.8439 5.95095 10.8421 6.12828 10.8421 6.33522Z" fill="#6D6D6D"/>
<path d="M10.255 2.78712C10.5802 2.78939 10.8444 3.05788 10.8421 3.3836C10.8397 3.7088 10.571 3.97332 10.2456 3.97088C9.9197 3.96844 9.65701 3.70112 9.65919 3.37419C9.66138 3.04779 9.92822 2.78484 10.255 2.78712Z" fill="#6D6D6D"/>
<path d="M12.6142 3.97088C12.2883 3.96866 12.0254 3.70152 12.0274 3.37462C12.0294 3.04814 12.296 2.78505 12.6227 2.78712C12.9479 2.78918 13.2124 3.0575 13.2102 3.38316C13.2081 3.70838 12.9396 3.97309 12.6142 3.97088Z" fill="#6D6D6D"/>
</g>
<defs>
<clipPath id="clip0_4794_1247">
<rect width="16" height="16" fill="white"/>
</clipPath>
</defs>
</svg>
