<svg width="16" height="16" viewBox="0 0 16 16" fill="none" xmlns="http://www.w3.org/2000/svg">
<path d="M7.99756 2.67689C10.2979 2.67689 12.5983 2.67684 14.8987 2.67694C15.3513 2.67696 15.5834 2.90716 15.5834 3.35687C15.5836 6.06729 15.5839 8.77772 15.5833 11.4881C15.5831 12.552 14.8097 13.3223 13.7415 13.3224C9.91577 13.3229 6.09002 13.3229 2.26428 13.3225C1.18742 13.3224 0.417355 12.5533 0.417209 11.4786C0.41684 8.77309 0.417031 6.0676 0.417137 3.3621C0.417155 2.90301 0.646329 2.67693 1.11121 2.67692C3.40666 2.67686 5.70211 2.67689 7.99756 2.67689ZM1.60198 4.54644C1.60198 4.61083 1.60198 4.63896 1.60198 4.6671C1.60199 6.95393 1.60127 9.24077 1.60276 11.5276C1.603 11.9003 1.85939 12.1395 2.25063 12.1395C6.08168 12.1399 9.91274 12.1399 13.7438 12.1396C14.1558 12.1395 14.3983 11.8989 14.3984 11.4891C14.3989 9.22694 14.3987 6.96474 14.3983 4.70254C14.3983 4.66134 14.3928 4.62014 14.3886 4.55983C14.3306 4.60729 14.289 4.64037 14.2484 4.67473C12.5589 6.10661 10.8704 7.5397 9.17954 8.97005C8.47079 9.5696 7.53218 9.57003 6.82452 8.97205C5.64152 7.97238 4.46133 6.9694 3.27985 5.96793C2.73075 5.50249 2.18141 5.03732 1.60198 4.54644ZM2.66977 3.86369C2.66379 3.87357 2.65781 3.88345 2.65184 3.89333C2.67161 3.90709 2.69269 3.91933 2.71099 3.93484C4.33625 5.31243 5.96098 6.69063 7.58666 8.06772C7.85644 8.29625 8.15237 8.29057 8.42941 8.05577C10.0435 6.68781 11.6572 5.31952 13.2707 3.95088C13.2968 3.92871 13.3181 3.90086 13.3529 3.86369C9.77629 3.86369 6.22303 3.86369 2.66977 3.86369Z" fill="#6D6D6D"/>
<path d="M12.147 10.9567C11.9499 10.9567 11.7527 10.9599 11.5556 10.956C11.2194 10.9494 10.9627 10.6913 10.9629 10.3652C10.9631 10.0386 11.2198 9.77888 11.556 9.77522C11.9502 9.77091 12.3446 9.77087 12.7388 9.77523C13.0754 9.77896 13.3316 10.0385 13.3316 10.3655C13.3316 10.6917 13.0748 10.9495 12.7384 10.956C12.5413 10.9599 12.3442 10.9567 12.147 10.9567Z" fill="#6D6D6D"/>
</svg>
