<svg width="24" height="24" viewBox="0 0 24 24" fill="none" xmlns="http://www.w3.org/2000/svg">
<g id="Vector">
<path d="M6.30773 19.5C5.80259 19.5 5.37503 19.325 5.02503 18.975C4.67503 18.625 4.50003 18.1974 4.50003 17.6923V15H6V17.6923C6 17.7692 6.03205 17.8397 6.09615 17.9039C6.16027 17.968 6.23079 18 6.30773 18H17.6923C17.7692 18 17.8397 17.968 17.9038 17.9039C17.9679 17.8397 18 17.7692 18 17.6923V15H19.5V17.6923C19.5 18.1974 19.325 18.625 18.975 18.975C18.625 19.325 18.1974 19.5 17.6923 19.5H6.30773ZM12 15.6154L7.73083 11.3462L8.78465 10.2616L11.25 12.727V4.32695H12.75V12.727L15.2154 10.2616L16.2692 11.3462L12 15.6154Z" fill="#1C1B1F"/>
</g>
</svg>
