<svg width="200" height="200" viewBox="0 0 200 200" fill="none" xmlns="http://www.w3.org/2000/svg">
<g id="IMAGE">
<mask id="mask0_3286_60281" style="mask-type:alpha" maskUnits="userSpaceOnUse" x="0" y="0" width="200" height="200">
<rect id="(MASK)" width="200" height="200" rx="100" fill="white"/>
</mask>
<g mask="url(#mask0_3286_60281)">
<g id="Vector">
<path d="M49.7186 160.678C45.6302 156.589 42.1849 152.041 40.3933 146.437C36.994 135.596 40.0258 126.225 47.1921 117.91C48.4783 116.44 49.8564 115.016 51.3724 113.821C52.4749 112.949 52.7964 111.984 52.7964 110.606C52.7505 100.178 52.7505 89.7043 52.7505 79.2765C52.7964 59.6613 66.0264 43.9047 85.3201 40.5513C86.3766 40.3676 87.4791 40.1838 88.5816 40.1838C96.6207 40.1379 104.66 39.6785 112.653 40.4135C128.685 41.9294 143.017 55.435 145.728 71.3753C146.187 74.0856 146.417 76.8419 146.417 79.5981C146.417 89.9799 146.417 100.362 146.371 110.744C146.371 111.984 146.692 112.811 147.657 113.638C153.353 118.507 157.763 124.341 159.417 131.783C161.714 141.935 158.452 150.525 151.791 158.105C151.056 158.978 150.23 159.759 149.449 160.586C148.576 160.724 148.116 160.08 147.565 159.575C143.201 155.487 138.056 153.511 132.13 153.511C127.215 153.511 122.254 153.511 117.338 153.511C116.512 153.511 115.593 153.649 114.904 153.006C114.261 151.536 114.536 149.974 114.353 148.458C114.077 146.253 114.077 144.048 114.123 141.797C114.72 140.695 115.868 140.327 116.833 139.73C128.593 132.702 134.657 122.32 134.887 108.676C135.07 99.1215 134.932 89.5206 134.932 79.9197C134.932 75.3719 133.095 73.5803 128.547 73.5344C123.494 73.5344 118.441 73.5344 113.388 73.5344C112.148 73.5344 111.275 73.9019 110.448 74.9125C106.773 79.5981 101.949 81.849 95.9776 81.8031C86.2848 81.7112 76.592 81.8031 66.8992 81.8031C64.2808 81.8031 64.2808 81.8031 64.2808 84.3296C64.2808 92.7821 64.097 101.189 64.3267 109.641C64.5564 119.564 68.3692 127.97 75.7192 134.769C77.9701 136.836 80.4048 138.628 83.1151 140.052C83.896 140.419 84.631 140.879 85.0445 141.66C85.0445 145.426 84.9985 149.147 84.3095 152.822C83.6204 153.557 82.7476 153.374 81.8748 153.374C77.0054 153.374 72.1361 153.419 67.3126 153.374C61.203 153.328 55.8742 155.303 51.4642 159.529C51.0049 160.218 50.5455 160.815 49.7186 160.678Z" fill="#3E3D42"/>
<path d="M115.179 153.052C120.554 153.052 125.929 153.19 131.303 153.098C138.286 152.96 144.212 155.165 148.989 160.31C149.127 160.448 149.357 160.54 149.541 160.678C151.47 163.664 153.491 166.604 154.18 170.187C154.456 171.703 154.777 173.218 154.777 174.78C154.777 182.59 154.731 190.399 154.823 198.208C154.823 199.678 154.364 200 152.986 200C117.476 199.954 81.9207 199.954 46.4111 200C45.033 200 44.5736 199.678 44.5736 198.208C44.6655 190.629 44.6196 183.049 44.6196 175.469C44.6196 170.37 46.0896 165.777 49.2133 161.734C49.443 161.413 49.6267 161.045 49.8105 160.678C51.4642 159.391 52.8424 157.784 54.6799 156.635C58.263 154.384 62.1217 153.144 66.348 153.098C72.3198 153.052 78.2457 153.052 84.2176 153.006C84.7229 153.419 84.677 154.017 84.677 154.568C85.0445 161.367 89.5004 166.971 95.7479 168.533C102.547 170.233 109.116 167.66 112.745 161.78C113.985 159.759 114.674 157.508 114.812 155.119C114.72 154.43 114.49 153.603 115.179 153.052Z" fill="#F2B0B1"/>
<path d="M84.8148 141.751C79.486 139.041 74.8004 135.55 71.1714 130.726C66.4398 124.433 63.9133 117.359 63.8673 109.503C63.7755 100.683 63.8673 91.8174 63.8214 82.9975C63.8214 81.6193 64.2808 81.4356 65.4751 81.4356C75.6273 81.4815 85.7795 81.4356 95.9316 81.4815C102.179 81.5275 107.186 79.1847 110.723 73.9478C111.137 73.3506 111.596 73.1669 112.285 73.1669C118.211 73.1669 124.091 73.1669 130.017 73.2128C133.141 73.2587 135.484 75.5556 135.484 78.6793C135.53 89.3828 135.897 100.132 135.392 110.836C134.749 124.157 128.088 134.08 116.512 140.649C115.868 141.016 115.225 141.384 114.582 141.751C113.112 143.221 111.137 143.497 109.299 144.002C101.628 146.115 94.0482 145.656 86.6063 142.854C85.8254 142.624 85.2742 142.257 84.8148 141.751Z" fill="#FEDCCD"/>
<path d="M84.8148 141.751C88.6735 143.267 92.6701 144.37 96.8044 144.737C100.296 145.059 103.741 144.645 107.14 144.002C109.667 143.543 112.01 142.486 114.444 141.751C114.674 145.518 114.904 149.285 115.133 153.052C115.363 159.208 112.883 163.985 107.692 167.339C101.306 171.473 91.8432 169.727 87.2495 163.618C84.9067 160.448 83.896 156.957 84.0338 153.052C84.3095 149.285 84.5851 145.518 84.8148 141.751Z" fill="#FECABD"/>
<path d="M83.1151 95.2627C83.1151 94.2981 83.0692 93.3334 83.1151 92.3687C83.207 90.8528 84.3554 89.7962 85.7795 89.7503C87.2954 89.7043 88.4898 90.8068 88.5816 92.4146C88.6735 94.2981 88.6735 96.1815 88.5816 98.0649C88.5357 99.6727 87.3413 100.775 85.8254 100.775C84.3095 100.775 83.207 99.6727 83.1151 98.0649C83.0692 97.1002 83.1151 96.1815 83.1151 95.2627Z" fill="#3E3D42"/>
<path d="M116.144 95.2627C116.144 96.2274 116.236 97.1921 116.144 98.1568C116.006 99.6727 114.858 100.683 113.434 100.683C112.01 100.683 110.769 99.6268 110.723 98.1109C110.632 96.1356 110.586 94.1143 110.723 92.139C110.815 90.669 111.826 89.7962 113.342 89.7043C114.766 89.6124 116.006 90.669 116.144 92.139C116.236 93.2415 116.144 94.2521 116.144 95.2627Z" fill="#3E3D42"/>
</g>
<rect id="(LINE)" x="1" y="1" width="198" height="198" rx="99" stroke="#1E1E1E" stroke-opacity="0.1" stroke-width="2"/>
</g>
</g>
</svg>
