<svg width="200" height="200" viewBox="0 0 200 200" fill="none" xmlns="http://www.w3.org/2000/svg">
<g id="IMAGE">
<mask id="mask0_3357_60841" style="mask-type:alpha" maskUnits="userSpaceOnUse" x="0" y="0" width="200" height="200">
<rect id="(MASK)" width="200" height="200" rx="100" fill="white"/>
</mask>
<g mask="url(#mask0_3357_60841)">
<g id="Vector">
<path d="M117.205 153.75C122.986 153.75 128.767 153.75 134.548 153.75C147.364 153.798 157.577 164.012 157.625 176.779C157.673 183.957 157.577 191.087 157.673 198.266C157.673 199.566 157.384 200 155.987 200C118.554 199.952 81.1199 199.952 43.6862 200C42.2891 200 42 199.566 42 198.266C42.0482 190.991 42 183.716 42.0482 176.441C42.1445 164.108 52.4063 153.894 64.7878 153.75C70.6654 153.702 76.5912 153.75 82.4688 153.75C83.5287 154.183 83.8178 155.243 84.2996 156.111C88.9246 164.734 93.6941 173.262 98.3191 181.885C98.7527 182.656 99.1382 183.475 99.909 184.246C101.451 182.078 102.462 179.766 103.667 177.598C107.617 170.371 111.568 163.193 115.47 155.966C115.952 155.147 116.241 154.135 117.205 153.75Z" fill="#5BCAF9"/>
<path d="M83.6251 140.019C83.7696 138.719 83.047 138.092 81.9871 137.562C78.3738 135.876 75.4832 133.275 72.6889 130.48C71.4844 130.095 70.7136 129.18 69.9428 128.216C64.6433 121.327 61.8008 113.522 61.7527 104.802C61.7045 96.419 61.7527 88.0844 61.7527 79.7015C61.7527 74.6911 64.1615 72.2822 69.1719 72.2822C80.2045 72.2822 91.1889 72.1859 102.221 72.3304C104.582 72.3786 105.883 71.6078 106.75 69.4398C107.666 67.2236 108.822 65.1038 109.978 62.984C111.038 60.9606 111.761 60.8643 113.206 62.7432C115.133 65.2484 117.108 67.8018 118.939 70.4033C119.903 71.8005 121.107 72.3304 122.745 72.2822C125.491 72.1859 128.285 72.2341 131.031 72.2822C135.367 72.3304 137.873 74.8356 137.921 79.1234C137.969 88.1325 138.162 97.1899 137.873 106.199C137.632 114.534 134.645 122.049 129.393 128.601C128.767 129.42 128.044 130.143 126.985 130.432C124.479 133.178 121.589 135.394 118.361 137.177C117.253 137.803 115.807 138.189 116.048 139.923C115.278 139.586 114.555 139.586 113.688 139.923C104.438 143.44 95.1876 143.44 85.9376 139.923C85.1668 139.682 84.4441 139.682 83.6251 140.019Z" fill="#FEDCCD"/>
<path d="M127.033 130.48C133.681 123.495 137.198 115.208 137.391 105.621C137.584 96.7081 137.439 87.7953 137.439 78.8825C137.439 75.2211 134.982 72.8604 131.272 72.8122C128.334 72.8122 125.347 72.7158 122.408 72.8604C120.722 72.9567 119.662 72.475 118.698 71.0296C116.434 67.8018 113.977 64.6702 111.423 61.2978C110.026 64.0921 108.485 66.5492 107.521 69.1989C106.461 72.0895 104.775 72.9567 101.643 72.9086C90.7553 72.6677 79.8673 72.8122 68.9792 72.8122C64.5469 72.8122 62.2826 75.0284 62.2826 79.4125C62.2826 87.9398 62.1862 96.5154 62.3308 105.043C62.4753 114.823 65.9441 123.35 72.6889 130.432C61.5599 131.637 51.0091 122.627 50.8164 111.402C50.5755 97.8643 50.4792 84.3265 50.8164 70.7888C51.2982 51.3733 67.0521 34.4631 86.4194 32.7288C96.2957 31.8616 106.268 31.5243 116.145 33.1142C133.007 35.8121 146.882 50.8916 148.712 67.8981C149.098 71.5114 149.002 75.1247 149.002 78.738C149.05 89.2888 149.098 99.7914 149.002 110.342C148.905 121.953 139.703 130.818 128.141 130.577C127.755 130.625 127.37 130.528 127.033 130.48Z" fill="#3E3D42"/>
<path d="M83.6251 140.019C83.9142 139.008 84.2996 138.767 85.4077 139.249C94.9949 143.151 104.679 143.151 114.266 139.249C115.422 138.767 115.807 139.008 116.048 140.019C116.434 144.596 116.819 149.173 117.156 153.75C111.423 164.204 105.69 174.707 99.8126 185.499C93.8868 174.707 88.2019 164.204 82.4688 153.75C82.9024 149.173 83.2879 144.596 83.6251 140.019Z" fill="#FECABD"/>
<path d="M88.2983 90.156C88.2983 91.1195 88.3465 92.0831 88.2983 93.0466C88.2019 94.781 87.0457 95.8891 85.4558 95.9373C83.866 95.9373 82.6134 94.8292 82.5652 93.143C82.4688 91.1677 82.4688 89.1924 82.5652 87.2172C82.6134 85.531 83.9142 84.3747 85.4558 84.4229C86.9493 84.4711 88.1056 85.531 88.2983 87.1208C88.2983 87.2172 88.2983 87.3617 88.2983 87.4581C88.2983 88.3734 88.2983 89.2888 88.2983 90.156Z" fill="#3E3D42"/>
<path d="M117.205 90.2042C117.205 91.2159 117.301 92.2276 117.205 93.2393C117.06 94.8292 115.856 95.8891 114.362 95.8891C112.869 95.8891 111.568 94.781 111.52 93.2393C111.423 91.1677 111.375 89.0479 111.52 86.9763C111.616 85.4346 112.676 84.5193 114.266 84.4229C115.759 84.3265 117.06 85.4346 117.205 86.9763C117.253 88.0362 117.205 89.1443 117.205 90.2042Z" fill="#3E3D42"/>
</g>
<rect id="(LINE)" x="1" y="1" width="198" height="198" rx="99" stroke="#1E1E1E" stroke-opacity="0.1" stroke-width="2"/>
</g>
</g>
</svg>
