<svg width="147" height="32" viewBox="0 0 147 32" fill="none" xmlns="http://www.w3.org/2000/svg">
<path d="M54.2099 24.96H72.5565C72.7699 24.96 72.9832 25.12 72.9832 25.3867V31.0933C72.9832 31.3067 72.8232 31.52 72.5565 31.52H54.2099C53.9965 31.52 53.7832 31.36 53.7832 31.0933V25.3333C53.7832 25.12 53.9965 24.96 54.2099 24.96ZM54.2099 0H72.5565C72.7699 0 72.9832 0.16 72.9832 0.426667V6.08C72.9832 6.29333 72.8232 6.50667 72.5565 6.50667H54.2099C53.9965 6.50667 53.7832 6.34667 53.7832 6.08V0.426667C53.7832 0.16 53.9965 0 54.2099 0Z" fill="url(#paint0_linear_3503_64316)"/>
<path d="M98.4237 32C96.7704 32 95.1704 31.7867 93.6771 31.36C92.1837 30.9333 90.797 30.24 89.517 29.28C88.237 28.32 87.2237 26.9867 86.4237 25.28C85.677 23.5733 85.3037 21.6 85.3037 19.3067V0.426667C85.3037 0.213333 85.4637 0 85.7304 0H91.7037C91.917 0 92.1304 0.16 92.1304 0.426667V19.36C92.1304 21.6 92.6104 23.2 93.6237 24.0533C94.637 24.96 96.237 25.3867 98.4237 25.3867C100.557 25.3867 102.157 24.9067 103.17 24C104.184 23.0933 104.717 21.5467 104.717 19.3067V0.426667C104.717 0.213333 104.877 0 105.144 0H111.117C111.33 0 111.544 0.16 111.544 0.426667V19.36C111.544 21.6 111.17 23.5733 110.424 25.28C109.677 26.9867 108.664 28.32 107.384 29.28C106.104 30.24 104.717 30.9333 103.224 31.4133C101.73 31.7867 100.13 32 98.4237 32Z" fill="url(#paint1_linear_3503_64316)"/>
<path d="M123.757 31.04V0.426667C123.757 0.213333 123.917 0 124.183 0H130.157C130.37 0 130.583 0.16 130.583 0.426667V24.4267C130.583 24.64 130.744 24.8533 131.01 24.8533H145.303C145.517 24.8533 145.73 25.0133 145.73 25.28V31.04C145.73 31.2533 145.517 31.4667 145.303 31.4667H124.183C123.917 31.4667 123.757 31.2533 123.757 31.04Z" fill="url(#paint2_linear_3503_64316)"/>
<path d="M2.68997 22.4H1.62331C1.03664 22.4 0.556641 21.92 0.556641 21.3333V20.2666C0.556641 19.68 1.03664 19.2 1.62331 19.2H2.68997C3.27664 19.2 3.75664 19.68 3.75664 20.2666V21.3333C3.75664 21.92 3.27664 22.4 2.68997 22.4Z" fill="url(#paint3_linear_3503_64316)"/>
<path d="M29.0898 0.426667V17.4933C29.0898 17.92 28.5565 18.08 28.3431 17.7067L16.5031 0.16C16.4498 0.0533333 16.2898 0 16.1831 0H10.5831C10.3698 0 10.1565 0.16 10.1565 0.426667V21.6533V23.1467C10.1565 23.68 9.94312 24.16 9.56979 24.5333C9.19645 24.9067 8.71646 25.12 8.18313 25.12H5.62312C4.55646 25.12 3.70312 25.9733 3.70312 27.04V29.6C3.70312 30.6667 4.55646 31.52 5.62312 31.52H8.18313C9.24979 31.52 10.1031 30.6667 10.1031 29.6V27.04C10.1031 26.5067 10.3165 26.0267 10.6898 25.6533C11.0631 25.28 11.5431 25.0667 12.0765 25.0667H14.9565C16.0231 25.0667 16.8765 24.2133 16.8765 23.1467V13.76C16.8765 13.3333 17.4098 13.1733 17.6231 13.5467L29.8365 31.3067C29.8898 31.4133 30.0498 31.4667 30.1565 31.4667H35.4898C35.7031 31.4667 35.9165 31.3067 35.9165 31.04V0.426667C35.9165 0.213333 35.7565 0 35.4898 0H29.5165C29.3031 0 29.0898 0.16 29.0898 0.426667Z" fill="url(#paint4_linear_3503_64316)"/>
<path d="M66.1031 12.32H60.6098C58.7431 12.32 57.1965 10.7733 57.1965 8.90667V3.41333C57.1965 1.54667 55.6498 0 53.7831 0C51.9165 0 50.3698 1.54667 50.3698 3.41333V8.90667C50.3698 10.7733 48.8231 12.32 46.9565 12.32H41.4631C39.5965 12.32 38.0498 13.8667 38.0498 15.7333C38.0498 17.6 39.5965 19.1467 41.4631 19.1467H46.9565C48.8231 19.2533 50.3698 17.8133 50.3698 15.8933V12.32C50.3698 10.4533 51.9165 8.90667 53.7831 8.90667C55.6498 8.90667 57.1965 10.4533 57.1965 12.32V15.8933C57.1965 17.76 58.7431 19.2533 60.6098 19.1467H65.9431C67.8098 19.1467 69.4631 17.7067 69.5165 15.84C69.5698 13.92 68.0231 12.32 66.1031 12.32Z" fill="url(#paint5_linear_3503_64316)"/>
<path d="M57.1968 22.5599V27.8933C57.1968 29.7599 55.7568 31.4133 53.8901 31.4666C51.9701 31.5199 50.3701 29.9733 50.3701 28.0533V22.5599C50.3701 20.6933 51.9168 19.1466 53.7835 19.1466C55.7035 19.1466 57.1968 20.6933 57.1968 22.5599Z" fill="url(#paint6_linear_3503_64316)"/>
<defs>
<linearGradient id="paint0_linear_3503_64316" x1="50.8526" y1="3.18928" x2="75.9349" y2="28.2716" gradientUnits="userSpaceOnUse">
<stop offset="0.35" stop-color="#301F9F"/>
<stop offset="0.4644" stop-color="#3127A8"/>
<stop offset="0.6546" stop-color="#333CC2"/>
<stop offset="0.8957" stop-color="#365FEB"/>
<stop offset="1" stop-color="#3870FF"/>
</linearGradient>
<linearGradient id="paint1_linear_3503_64316" x1="85.6286" y1="-0.0803727" x2="111.218" y2="25.5086" gradientUnits="userSpaceOnUse">
<stop offset="0.35" stop-color="#301F9F"/>
<stop offset="0.4644" stop-color="#3127A8"/>
<stop offset="0.6546" stop-color="#333CC2"/>
<stop offset="0.8957" stop-color="#365FEB"/>
<stop offset="1" stop-color="#3870FF"/>
</linearGradient>
<linearGradient id="paint2_linear_3503_64316" x1="117.701" y1="6.2792" x2="144.154" y2="32.7315" gradientUnits="userSpaceOnUse">
<stop offset="0.35" stop-color="#301F9F"/>
<stop offset="0.4644" stop-color="#3127A8"/>
<stop offset="0.6546" stop-color="#333CC2"/>
<stop offset="0.8957" stop-color="#365FEB"/>
<stop offset="1" stop-color="#3870FF"/>
</linearGradient>
<linearGradient id="paint3_linear_3503_64316" x1="0.849067" y1="19.5124" x2="3.42421" y2="22.0875" gradientUnits="userSpaceOnUse">
<stop stop-color="#FF6FA5"/>
<stop offset="1" stop-color="#FFCF3F"/>
</linearGradient>
<linearGradient id="paint4_linear_3503_64316" x1="7.46302" y1="2.91712" x2="35.8487" y2="31.3028" gradientUnits="userSpaceOnUse">
<stop offset="0.35" stop-color="#301F9F"/>
<stop offset="0.4644" stop-color="#3127A8"/>
<stop offset="0.6546" stop-color="#333CC2"/>
<stop offset="0.8957" stop-color="#365FEB"/>
<stop offset="1" stop-color="#3870FF"/>
</linearGradient>
<linearGradient id="paint5_linear_3503_64316" x1="45.2246" y1="7.15856" x2="62.3457" y2="24.2797" gradientUnits="userSpaceOnUse">
<stop stop-color="#08C6E3"/>
<stop offset="1" stop-color="#3DF9C7"/>
</linearGradient>
<linearGradient id="paint6_linear_3503_64316" x1="50.0111" y1="21.517" x2="57.5598" y2="29.0657" gradientUnits="userSpaceOnUse">
<stop stop-color="#08C6E3"/>
<stop offset="1" stop-color="#3DF9C7"/>
</linearGradient>
</defs>
</svg>
