<svg width="32" height="16" viewBox="0 0 32 16" fill="none" xmlns="http://www.w3.org/2000/svg">
<g id="(ICON) ARROW">
<path id="(ICON) ARROW_2" fill-rule="evenodd" clip-rule="evenodd" d="M24.5286 1.35002C24.1381 0.959498 23.505 0.959498 23.1144 1.35002C22.7239 1.74055 22.7239 2.37371 23.1144 2.76424L27.35 6.99982H1.82153C1.26925 6.99982 0.821533 7.44753 0.821533 7.99982C0.821533 8.5521 1.26925 8.99982 1.82153 8.99982H27.35L23.1144 13.2354C22.7239 13.6259 22.7239 14.2591 23.1144 14.6496C23.505 15.0402 24.1381 15.0402 24.5286 14.6496L30.3003 8.87798C30.4687 8.78598 30.6077 8.64696 30.6997 8.47857L31.1784 7.99983L30.6997 7.5211C30.6077 7.35268 30.4687 7.21364 30.3003 7.12163L24.5286 1.35002Z" fill="white"/>
</g>
</svg>
