<svg width="200" height="200" viewBox="0 0 200 200" fill="none" xmlns="http://www.w3.org/2000/svg">
<g id="IMAGE">
<mask id="mask0_3286_60289" style="mask-type:alpha" maskUnits="userSpaceOnUse" x="0" y="0" width="200" height="200">
<rect id="(MASK)" width="200" height="200" rx="100" fill="white"/>
</mask>
<g mask="url(#mask0_3286_60289)">
<g id="Vector">
<path d="M117.598 147.245C124.58 147.245 131.562 147.09 138.544 147.245C151.009 147.556 161.818 158.313 162.129 170.83C162.336 180.088 162.18 189.294 162.18 198.552C162.18 199.638 161.87 200.103 160.784 199.948C160.525 199.897 160.267 199.948 160.008 199.948C120.08 199.948 80.1521 199.948 40.224 200C38.4138 200 38 199.535 38 197.776C38.1034 189.294 38.0517 180.863 38.0517 172.381C38.1034 158.107 48.9647 147.245 63.1878 147.194C69.6528 147.194 76.1179 147.194 82.5829 147.245C83.2553 147.762 83.1001 148.538 83.1518 149.211C83.5139 156.296 88.479 162.658 95.151 164.52C102.495 166.589 109.84 164.054 113.977 158.055C115.891 155.314 116.925 152.366 117.029 149.004C117.029 148.383 116.977 147.711 117.598 147.245Z" fill="#4A80A9"/>
<path d="M83.0484 138.298C83.1518 137.418 82.5312 137.108 81.9106 136.746C74.4111 132.867 68.515 127.178 64.5325 119.73C62.1534 115.334 60.7569 110.627 60.1363 105.662C59.5674 100.904 59.9811 96.1456 59.826 91.3873C59.3605 90.8701 59.2571 90.2495 59.2053 89.5771C59.1536 84.5085 59.1536 79.4399 59.2053 74.3713C59.2053 73.8541 59.3088 73.3369 59.5674 72.8714C60.1363 72.0956 61.0673 72.1473 61.8431 72.1473C63.3947 72.0956 64.9463 72.0956 66.4979 72.1473C68.0495 72.1991 68.877 71.5784 69.3425 70.1303C70.7907 65.6306 72.3423 61.1826 73.7905 56.7347C74.7731 53.7866 75.0835 53.5798 78.2384 53.5798C92.8235 53.5798 107.409 53.5798 121.994 53.5798C125.149 53.5798 125.356 53.7349 126.39 56.7864C127.786 60.924 129.183 65.1134 130.579 69.3027C131.562 72.1991 131.562 72.1991 134.51 72.1991C135.855 72.1991 137.2 72.1473 138.596 72.1991C139.372 72.1991 140.148 72.1991 140.717 72.8714C141.492 78.8193 141.182 84.7671 140.872 90.7149C140.872 90.9735 140.665 91.1804 140.458 91.3873C140.251 96.1456 140.717 100.904 140.096 105.662C139.217 112.644 136.682 118.954 132.596 124.643C128.821 129.867 123.959 133.746 118.322 136.746C117.649 137.108 117.08 137.418 117.184 138.298C115.167 138.453 113.357 139.435 111.443 139.953C103.012 142.28 94.6855 142.125 86.4619 139.125C85.3241 138.763 84.1862 138.453 83.0484 138.298Z" fill="#FEDCCD"/>
<path d="M140.406 72.7163C137.82 72.7163 135.234 72.6646 132.648 72.768C131.51 72.8197 130.993 72.4577 130.631 71.3198C128.976 66.0961 127.114 60.924 125.459 55.7003C125.097 54.5624 124.632 54.0452 123.339 54.097C107.822 54.1487 92.3063 54.1487 76.842 54.097C75.549 54.097 75.0835 54.5624 74.7214 55.7003C73.0664 60.924 71.2044 66.0961 69.5494 71.3198C69.1874 72.4577 68.6701 72.8197 67.5323 72.768C64.9463 72.6646 62.3603 72.7163 59.7743 72.7163C58.9984 71.7336 59.0502 70.6992 59.6708 69.6648C60.1363 62.217 58.9985 54.8728 58.3778 47.4768C57.964 42.5116 57.5503 37.5465 58.533 32.633C59.3605 28.4437 61.2741 26.9438 65.5152 27.0472C68.6702 27.1507 71.7734 28.0299 74.8766 28.392C77.6695 28.754 80.2555 28.4437 82.6864 26.9955C86.5654 24.7198 90.4444 22.3407 94.7372 20.9442C98.099 19.8581 101.564 19.3926 104.667 21.3063C110.15 24.7198 116.046 26.3231 122.459 26.168C125.252 26.1163 127.476 27.5127 129.286 29.6332C134.096 35.2708 136.475 42.0461 138.337 49.0801C140.148 55.8037 140.355 62.7342 140.303 69.6131C141.13 70.6992 141.182 71.7336 140.406 72.7163Z" fill="#3E3D42"/>
<path d="M83.0484 138.298C83.5139 137.574 84.0828 137.677 84.8069 137.987C89.8238 140.108 95.0992 141.091 100.53 140.987C105.65 140.935 110.564 139.953 115.27 137.987C116.046 137.677 116.563 137.522 117.029 138.298C117.184 141.297 117.339 144.245 117.494 147.245C118.115 157.02 110.46 165.503 100.478 165.813C90.2375 166.071 81.8588 157.589 82.4795 147.245C82.7381 144.245 82.8932 141.297 83.0484 138.298Z" fill="#FECABD"/>
<path d="M59.6708 69.6648C59.7225 70.6992 59.7225 71.7336 59.7743 72.7163C59.7743 78.9227 59.7743 85.1809 59.7743 91.3873C57.7572 91.3873 55.7918 91.3873 53.7747 91.3873C49.9474 91.3356 47.4131 88.8013 47.3614 84.9223C47.3614 81.9742 47.3097 78.9744 47.3614 76.0264C47.4131 72.3025 49.9474 69.7165 53.723 69.6648C55.6883 69.613 57.7054 69.6648 59.6708 69.6648Z" fill="#FECABD"/>
<path d="M140.406 72.7163C140.458 71.6819 140.458 70.6475 140.51 69.6648C142.527 69.6648 144.492 69.6648 146.509 69.6648C150.233 69.7165 152.819 72.2508 152.871 76.0264C152.923 79.0779 152.923 82.0776 152.871 85.1292C152.819 88.7496 150.285 91.3356 146.664 91.3873C144.596 91.439 142.527 91.3873 140.458 91.3873C140.406 85.1809 140.406 78.9227 140.406 72.7163Z" fill="#FECABD"/>
<path d="M87.6515 82.0776C87.6515 83.1121 87.7032 84.1465 87.6515 85.1809C87.5481 86.9911 86.2551 88.2324 84.6 88.2841C82.8932 88.2841 81.5485 87.0428 81.4968 85.2326C81.3933 83.1121 81.3933 80.9915 81.4968 78.871C81.5485 77.0608 82.945 75.8195 84.6517 75.8712C86.2551 75.9229 87.5481 77.1125 87.6515 78.8193C87.7032 79.9054 87.6515 80.9915 87.6515 82.0776Z" fill="#3E3D42"/>
<path d="M118.684 82.0259C118.684 83.1121 118.735 84.1982 118.684 85.2843C118.529 86.9911 117.287 88.1806 115.684 88.2324C113.977 88.2841 112.632 87.0428 112.529 85.2326C112.426 83.1121 112.426 80.9915 112.529 78.871C112.581 77.0608 113.925 75.8195 115.632 75.8195C117.339 75.8195 118.58 77.0608 118.684 78.9227C118.735 79.9571 118.684 80.9915 118.684 82.0259Z" fill="#3E3D42"/>
</g>
<rect id="(LINE)" x="1" y="1" width="198" height="198" rx="99" stroke="#1E1E1E" stroke-opacity="0.1" stroke-width="2"/>
</g>
</g>
</svg>
